<svg width="16" height="22" viewBox="0 0 16 22" fill="none" xmlns="http://www.w3.org/2000/svg">
<path d="M7.61831 21.999C4.91335 21.8815 2.53834 20.506 0.978959 17.7404C0.261338 16.4678 -0.0522808 15.0641 0.00706722 13.5897C0.0440917 12.6684 0.330487 11.8022 0.668607 10.9562C1.55719 8.73244 2.77301 6.69757 4.10916 4.7414C5.10174 3.28832 6.16184 1.88359 7.20397 0.466489C7.66242 -0.1569 8.32015 -0.150717 8.79112 0.456371C10.6129 2.80434 12.3351 5.22482 13.8074 7.82575C14.5533 9.14335 15.2192 10.4997 15.6842 11.9556C16.1672 13.4672 16.0686 14.963 15.5758 16.4425C14.9089 18.4453 13.643 19.9366 11.8674 20.9804C10.8079 21.6038 9.30783 22.0029 7.61831 21.999ZM8.00054 2.37432C7.94173 2.45021 7.90417 2.49574 7.87041 2.54408C6.93772 3.87743 5.97835 5.19166 5.07996 6.54918C4.10371 8.02417 3.19988 9.54864 2.49206 11.1855C2.19369 11.8752 1.91546 12.5773 1.82127 13.3317C1.66446 14.5925 1.9465 15.7752 2.54052 16.8697C3.86197 19.3053 6.52337 20.5931 9.18096 20.0372C11.5424 19.5431 13.142 18.0827 13.9332 15.7286C14.2326 14.8371 14.3274 13.9079 14.1117 12.9669C13.907 12.0737 13.5558 11.2389 13.1551 10.4255C11.9393 7.95784 10.4071 5.69925 8.81834 3.47888C8.55645 3.11351 8.28421 2.75656 8.00054 2.37432Z" fill="#00669E"/>
<path d="M5.28701 9.56839C5.94528 9.56333 6.35908 10.1817 6.16144 10.8067C5.9932 11.3385 5.80481 11.8658 5.67522 12.4077C5.48411 13.2087 5.3812 14.0232 5.51841 14.8512C5.58756 15.2671 5.76778 15.6224 6.01879 15.9529C6.35691 16.3987 6.26162 16.9676 5.81678 17.2857C5.4558 17.5443 4.97502 17.4802 4.65814 17.1199C4.14088 16.5325 3.8534 15.8315 3.73743 15.0541C3.52889 13.6584 3.79024 12.3171 4.20241 10.9967C4.29552 10.6988 4.40169 10.4037 4.52311 10.117C4.67284 9.76176 4.95651 9.59087 5.28701 9.56839Z" fill="#00669E"/>
</svg>
