<svg width="16" height="18" viewBox="0 0 16 18" fill="none" xmlns="http://www.w3.org/2000/svg">
<path d="M0.666559 8.64026C0.666559 7.35318 0.667102 6.0661 0.666016 4.77957C0.666016 4.50477 0.782233 4.30167 1.02173 4.16373C3.20921 2.90435 5.39833 1.64877 7.5793 0.377981C7.93176 0.1727 8.2261 0.169985 8.57855 0.375266C10.7595 1.64551 12.9486 2.90109 15.1356 4.16101C15.374 4.29841 15.4935 4.50043 15.4929 4.77631C15.4902 7.30973 15.4826 9.84316 15.4918 12.3766C15.4935 12.7703 15.3496 13.0174 15.0107 13.2113C12.815 14.4701 10.627 15.7409 8.43627 17.0084C8.19949 17.1453 7.96217 17.1464 7.72485 17.009C5.52867 15.7387 3.33412 14.4647 1.1336 13.2015C0.809929 13.0158 0.6633 12.7785 0.667645 12.3999C0.682308 11.1471 0.673076 9.89366 0.673076 8.64026C0.671446 8.64026 0.668731 8.64026 0.666559 8.64026ZM13.5276 4.7535C13.4727 4.71549 13.4521 4.69811 13.4287 4.68453C11.6893 3.67985 9.94872 2.6768 8.21198 1.66723C8.09359 1.59826 8.01593 1.63356 7.91764 1.69058C6.21945 2.67245 4.52019 3.65215 2.82146 4.6324C2.76553 4.66444 2.71393 4.70354 2.64442 4.7497C2.69547 4.78446 2.72588 4.80835 2.75955 4.8279C4.4876 5.82552 6.21674 6.82151 7.94153 7.82348C8.06589 7.89571 8.14898 7.86258 8.25434 7.80175C9.864 6.86985 11.4753 5.94011 13.0855 5.00983C13.2251 4.93 13.363 4.84908 13.5276 4.7535ZM1.98839 5.88852C1.98242 5.94988 1.97536 5.9879 1.97536 6.02591C1.97482 8.03147 1.97319 10.0365 1.98079 12.042C1.98079 12.1143 2.04867 12.2164 2.11384 12.2544C3.83972 13.258 5.5694 14.2551 7.29854 15.2521C7.33492 15.2728 7.37728 15.2831 7.42942 15.3026C7.42942 15.2483 7.42942 15.2147 7.42942 15.181C7.42942 13.1825 7.42779 11.184 7.43267 9.1855C7.43322 9.05625 7.38325 8.99597 7.27898 8.93623C5.63022 7.98857 3.98363 7.03711 2.3365 6.08674C2.22734 6.0232 2.11656 5.96129 1.98839 5.88852ZM8.73007 15.3238C8.79687 15.288 8.83705 15.2673 8.8767 15.2445C10.5999 14.2502 12.3225 13.2547 14.0484 12.2653C14.1733 12.1936 14.1863 12.1056 14.1863 11.9845C14.1841 10.0267 14.1847 8.06895 14.1847 6.11118C14.1847 6.04655 14.1847 5.98138 14.1847 5.88635C14.1141 5.92382 14.0739 5.94391 14.0342 5.96672C12.3111 6.96054 10.5885 7.95599 8.86312 8.94655C8.75071 9.01117 8.72735 9.0872 8.72735 9.20613C8.73061 11.1775 8.72953 13.1488 8.72953 15.1202C8.73007 15.1783 8.73007 15.2364 8.73007 15.3238Z" fill="#00669E"/>
<path d="M1.98946 5.88867C2.11816 5.96144 2.22841 6.02335 2.33811 6.08689C3.98524 7.03727 5.63183 7.98873 7.28059 8.93638C7.38432 8.99612 7.43428 9.05694 7.43428 9.18565C7.42939 11.1842 7.43102 13.1827 7.43102 15.1812C7.43102 15.2148 7.43102 15.2485 7.43102 15.3028C7.37889 15.2827 7.33599 15.2729 7.30014 15.2523C5.57046 14.2552 3.84133 13.2581 2.11545 12.2545C2.05028 12.2165 1.9824 12.1144 1.9824 12.0422C1.97534 10.0366 1.97642 8.03163 1.97697 6.02607C1.97588 5.98751 1.98294 5.9495 1.98946 5.88867Z" fill="#94C0D9"/>
</svg>
