<svg width="19" height="21" viewBox="0 0 19 21" fill="none" xmlns="http://www.w3.org/2000/svg">
<path d="M17.3055 0.000513334C17.6072 0.120634 17.9385 0.197634 18.2042 0.369601C18.7443 0.718668 18.9878 1.25254 18.9905 1.87675C18.9974 3.49581 19.0011 5.11435 18.99 6.73341C18.9831 7.74673 18.2766 8.50082 17.2336 8.58963C16.7248 8.63326 16.2054 8.63274 15.696 8.59014C14.635 8.50133 13.9407 7.73698 13.9317 6.69747C13.9269 6.17849 13.9306 5.659 13.9306 5.14002C13.9306 5.07328 13.9306 5.00655 13.9306 4.91877C13.8583 4.91877 13.8038 4.91877 13.7499 4.91877C12.9906 4.91877 12.2313 4.92134 11.472 4.9162C11.3447 4.91518 11.2771 4.94392 11.2211 5.06764C11.0298 5.49011 10.7091 5.79914 10.2715 5.9824C10.1627 6.02809 10.1305 6.08301 10.131 6.19441C10.1352 7.4105 10.1358 8.62607 10.1305 9.84216C10.1299 9.96074 10.1801 10.0033 10.2789 10.0495C10.9664 10.3688 11.3468 10.9032 11.3901 11.6399C11.4171 12.1029 11.4166 12.5695 11.3907 13.0325C11.3489 13.7692 10.9695 14.3056 10.2821 14.6239C10.1706 14.6757 10.1284 14.7306 10.131 14.8503C10.1389 15.2322 10.1336 15.6141 10.1336 16.0109C11.3975 16.0109 12.6509 16.0109 13.9206 16.0109C13.9238 15.9462 13.9301 15.88 13.9301 15.8143C13.9312 15.2815 13.9238 14.7486 13.9322 14.2158C13.9481 13.2163 14.6244 12.4597 15.6442 12.3631C16.1869 12.3118 16.7433 12.3123 17.2859 12.3642C18.2888 12.4602 18.9773 13.2009 18.9873 14.1819C19.0042 15.8348 19.0042 17.4883 18.9873 19.1407C18.9773 20.1361 18.2724 20.8747 17.2447 20.9656C16.729 21.0113 16.2022 21.0113 15.6859 20.9666C14.6345 20.8758 13.9417 20.1145 13.9312 19.0868C13.9248 18.4862 13.9301 17.8856 13.9301 17.2706C10.9785 17.2706 8.03699 17.2706 5.08013 17.2706C5.07696 17.3358 5.07062 17.402 5.07062 17.4677C5.06956 18.0144 5.07696 18.5606 5.0685 19.1073C5.05265 20.1068 4.37631 20.8629 3.356 20.96C2.81334 21.0113 2.25695 21.0108 1.71429 20.9589C0.711939 20.8629 0.0229196 20.1222 0.0128802 19.1412C-0.0040282 17.4883 -0.00455659 15.8348 0.0128802 14.1824C0.023448 13.1865 0.728319 12.4484 1.75603 12.358C2.27174 12.3123 2.79855 12.3123 3.31478 12.357C4.36627 12.4478 5.05846 13.2096 5.06903 14.2373C5.07537 14.8241 5.07009 15.4108 5.07009 16.0124C6.33452 16.0124 7.58839 16.0124 8.86656 16.0124C8.86656 15.5977 8.86973 15.1834 8.86181 14.7697C8.86075 14.7265 8.8021 14.667 8.7556 14.6454C7.96355 14.283 7.59843 13.667 7.6016 12.8287C7.60266 12.4735 7.59526 12.1183 7.60318 11.7631C7.62168 10.9664 7.99261 10.3832 8.74186 10.0429C8.84067 9.9977 8.87026 9.94483 8.86973 9.84267C8.86656 8.62658 8.86603 7.41101 8.87026 6.19492C8.87079 6.08353 8.83856 6.02911 8.72971 5.98291C8.28586 5.79555 7.97094 5.4783 7.76434 5.05275C7.73634 4.99526 7.6518 4.92596 7.59314 4.92544C6.76357 4.91723 5.93453 4.9198 5.07115 4.9198C5.07115 4.99782 5.07115 5.06969 5.07115 5.14104C5.07115 5.66721 5.07696 6.19287 5.06956 6.71903C5.05635 7.72979 4.37896 8.48747 3.34754 8.58449C2.81176 8.6348 2.26223 8.63428 1.72644 8.58346C0.712995 8.48747 0.0218628 7.74314 0.0128802 6.75445C-0.00191465 5.12205 -0.00138626 3.48913 0.0128802 1.85673C0.0208061 0.897822 0.654344 0.207387 1.63979 0.0272067C1.65934 0.0236134 1.6773 0.00975335 1.6958 0.000513334C2.25853 0.000513334 2.82074 0.000513334 3.38347 0.000513334C3.40883 0.01078 3.43367 0.0256667 3.46009 0.0302867C4.26324 0.175047 4.79691 0.626781 4.99506 1.39268C5.08066 1.72378 5.05952 2.0826 5.0685 2.4291C5.0796 2.84336 5.07115 3.25762 5.07115 3.67701C5.12029 3.68266 5.14671 3.68831 5.17365 3.68831C5.97522 3.68882 6.77626 3.68523 7.57782 3.69293C7.70833 3.69395 7.7374 3.62465 7.78231 3.53636C8.13157 2.84952 8.70593 2.47171 9.49059 2.46811C10.2848 2.46452 10.8692 2.84131 11.2174 3.5379C11.276 3.65545 11.3368 3.69344 11.4668 3.69241C12.2261 3.68625 12.9848 3.68985 13.7441 3.68882C13.8044 3.68882 13.8641 3.68112 13.9306 3.6765C13.9306 3.07693 13.9285 2.49686 13.9312 1.91679C13.9343 1.27718 14.1658 0.728935 14.7195 0.369087C14.9848 0.196607 15.3166 0.12012 15.6183 0C16.1805 0.000513334 16.7427 0.000513334 17.3055 0.000513334ZM3.80513 16.6603C3.80513 15.8543 3.80724 15.0484 3.80407 14.2425C3.80248 13.8164 3.54727 13.571 3.10765 13.5679C2.72087 13.5654 2.33409 13.5638 1.94784 13.5685C1.5357 13.5731 1.27573 13.8231 1.2752 14.2245C1.27256 15.8502 1.27203 17.476 1.2752 19.1012C1.27573 19.5016 1.53675 19.7505 1.94995 19.7552C2.32247 19.7593 2.69498 19.7572 3.06802 19.7557C3.56154 19.7541 3.80407 19.518 3.8046 19.037C3.80565 18.2449 3.80513 17.4529 3.80513 16.6603ZM17.7271 16.6618C17.7271 15.8492 17.7298 15.0361 17.7261 14.2235C17.7239 13.822 17.465 13.5731 17.0524 13.5685C16.6587 13.5643 16.2651 13.5643 15.8714 13.5685C15.4582 13.5731 15.1982 13.822 15.1977 14.2235C15.1945 15.8492 15.1945 17.4749 15.1977 19.1001C15.1982 19.5016 15.4582 19.7505 15.8714 19.7552C16.2439 19.7593 16.6164 19.7572 16.9895 19.7562C17.4835 19.7547 17.7266 19.519 17.7276 19.0391C17.7282 18.246 17.7271 17.4539 17.7271 16.6618ZM3.80513 4.30893C3.80513 3.50967 3.80671 2.71041 3.8046 1.91166C3.80301 1.48302 3.55044 1.23457 3.11399 1.23098C2.73461 1.2279 2.3547 1.22841 1.97479 1.23098C1.53358 1.23406 1.2752 1.4784 1.27467 1.90242C1.27256 3.50094 1.27256 5.09895 1.27467 6.69747C1.2752 7.13432 1.53041 7.37559 1.98641 7.37867C2.33092 7.38072 2.67543 7.37918 3.01994 7.37918C3.57528 7.37867 3.80513 7.15845 3.80513 6.62561C3.80513 5.85253 3.80513 5.08098 3.80513 4.30893ZM17.7271 4.32433C17.7271 3.51172 17.7298 2.6986 17.7261 1.88599C17.7239 1.48456 17.4656 1.2356 17.0524 1.23098C16.6587 1.22687 16.2651 1.22687 15.8714 1.23098C15.4582 1.2356 15.1982 1.48456 15.1977 1.88599C15.1945 3.49786 15.1945 5.10973 15.1977 6.7216C15.1982 7.12303 15.4582 7.372 15.8714 7.37662C16.2439 7.38072 16.6164 7.37867 16.9895 7.37764C17.4835 7.3761 17.7266 7.14048 17.7276 6.66051C17.7282 5.88179 17.7271 5.10306 17.7271 4.32433ZM8.86815 12.3282C8.86815 12.5331 8.86339 12.7379 8.8692 12.9427C8.87977 13.2974 9.14608 13.5602 9.49112 13.5654C9.84461 13.5705 10.1247 13.3041 10.131 12.9406C10.1384 12.5377 10.1384 12.1347 10.131 11.7317C10.1247 11.377 9.85518 11.1142 9.51014 11.1091C9.15665 11.1039 8.8803 11.3704 8.86973 11.7338C8.86339 11.9319 8.86815 12.1306 8.86815 12.3282ZM10.1315 4.30226C10.1305 3.96808 9.8425 3.68985 9.49852 3.69087C9.15453 3.6919 8.86815 3.97167 8.8692 4.30585C8.87026 4.64003 9.15823 4.91826 9.50221 4.91723C9.84672 4.9162 10.1326 4.63644 10.1315 4.30226Z" fill="#00669E"/>
</svg>
