<svg width="15" height="10" viewBox="0 0 15 10" fill="none" xmlns="http://www.w3.org/2000/svg">
<path d="M0.488281 0.887426C0.546458 0.74649 0.586687 0.591118 0.665288 0.466682C0.861481 0.157998 1.14308 0.0390625 1.48286 0.0390625C5.52245 0.0425 9.56142 0.041125 13.601 0.041125C13.7328 0.041125 13.864 0.0404375 13.9959 0.041125C14.4056 0.0425 14.7039 0.256997 14.8636 0.666054C15.0189 1.06342 14.9348 1.43261 14.668 1.74885C14.6389 1.78323 14.6092 1.81623 14.5789 1.84923C12.5309 4.12413 10.483 6.40041 8.43192 8.67257C8.31743 8.79907 8.18436 8.92419 8.0383 8.99225C7.71956 9.14006 7.41135 9.08094 7.14213 8.83001C7.08457 8.77638 7.0301 8.71795 6.97688 8.65951C4.95801 6.41691 2.94038 4.17432 0.920896 1.93447C0.729654 1.72204 0.549553 1.50617 0.488281 1.20092C0.488281 1.09642 0.488281 0.991925 0.488281 0.887426Z" fill="#00669E"/>
</svg>
