<svg width="14" height="28" viewBox="0 0 14 28" fill="currentColor" xmlns="http://www.w3.org/2000/svg">
<path d="M0.666016 14.1494C0.666016 12.6364 0.666016 11.1856 0.666016 9.69339C1.63999 9.69339 2.57238 9.69339 3.60712 9.69339C3.60712 9.38889 3.59433 9.12264 3.60872 8.85799C3.68868 7.44387 3.66469 6.01381 3.8854 4.62202C4.16048 2.88426 5.28158 1.74435 6.97044 1.23897C9.25104 0.558217 11.5972 0.848375 13.9562 0.792575C13.9562 2.29757 13.9562 3.73082 13.9562 5.25175C13.462 5.25175 12.9822 5.25175 12.5008 5.25175C12.2033 5.25175 11.9059 5.24856 11.6068 5.25335C9.86517 5.28523 9.54211 5.61206 9.53091 7.36257C9.52612 8.10231 9.53091 8.84205 9.53091 9.66469C11.0215 9.66469 12.4736 9.66469 13.9993 9.66469C13.825 11.1984 13.6603 12.6428 13.4908 14.1255C12.1746 14.1255 10.9015 14.1255 9.54051 14.1255C9.54051 18.583 9.54051 22.9992 9.54051 27.444C7.527 27.444 5.60304 27.444 3.61032 27.444C3.61032 23.0087 3.61032 18.6086 3.61032 14.1494C2.59797 14.1494 1.64958 14.1494 0.666016 14.1494Z" fill="currentColor"/>
</svg>
