<svg width="22" height="20" viewBox="0 0 22 20" fill="none" xmlns="http://www.w3.org/2000/svg">
<path d="M14.5864 6.09751C14.8024 5.87909 15.0039 5.67333 15.2081 5.46956C15.5685 5.10997 16.032 5.09598 16.3858 5.45358C17.7027 6.78407 19.0373 8.09857 20.3227 9.46036C22.5396 11.809 22.5547 15.4682 20.393 17.9267C18.4084 20.1835 15.1168 20.6523 12.5441 19.0375C12.3918 18.9416 12.2861 18.9356 12.1279 19.0195C9.04771 20.6463 5.4128 20.2354 2.80921 17.8901C0.776758 16.0575 -0.160691 13.7182 0.022466 10.9547C0.166235 8.79112 1.05117 6.97785 2.58273 5.4609C4.26462 3.7948 5.90844 2.09007 7.5667 0.400653C8.08597 -0.128746 8.47592 -0.134739 8.99323 0.389998C10.6843 2.10472 12.3754 3.8201 14.0652 5.53615C14.2385 5.71195 14.4013 5.89774 14.5864 6.09751ZM8.22449 1.99085C8.20348 2.01082 8.14965 2.06143 8.09779 2.11404C6.5577 3.6756 5.00381 5.22384 3.48144 6.80338C1.86717 8.47814 1.27043 10.5138 1.68073 12.7979C2.39366 16.7634 6.18547 19.1707 10.0331 18.1571C10.3896 18.0632 10.7335 17.9207 11.1071 17.7922C10.213 16.6668 9.70485 15.4449 9.64183 14.0558C9.56042 12.2598 10.1079 10.6863 11.3401 9.38245C11.969 8.7172 12.6262 8.07993 13.2741 7.43399C13.3371 7.3714 13.429 7.33877 13.4953 7.29881C11.7025 5.4922 9.97269 3.75018 8.22449 1.99085ZM15.797 7.12102C15.7234 7.19227 15.6584 7.2522 15.5954 7.31546C14.5877 8.33697 13.5866 9.3638 12.5723 10.378C11.7616 11.1884 11.3218 12.166 11.2226 13.31C10.9371 16.6189 14.0369 19.1653 17.1696 18.1951C20.2682 17.2362 21.6495 13.1202 19.0898 10.4492C18.0572 9.37179 16.9977 8.32099 15.9493 7.25886C15.9053 7.21358 15.8554 7.17296 15.797 7.12102Z" fill="#00669E"/>
<path d="M8.07437 16.1419C5.74913 16.0027 3.95694 14.2134 3.77904 11.8534C3.77313 11.7708 3.7705 11.6876 3.77182 11.6044C3.77772 11.1362 4.10859 10.786 4.54712 10.7813C4.99089 10.7766 5.32373 11.1083 5.34211 11.5811C5.38544 12.6585 5.82987 13.5109 6.72859 14.0989C7.14808 14.3732 7.61549 14.5164 8.11704 14.5364C8.13345 14.537 8.14986 14.5377 8.16627 14.5384C8.73216 14.567 9.09913 14.9159 9.0709 15.3981C9.04267 15.8848 8.65141 16.1765 8.07437 16.1419Z" fill="#00669E"/>
</svg>
