<svg width="22" height="24" viewBox="0 0 22 24" fill="none" xmlns="http://www.w3.org/2000/svg">
<path d="M0.603854 23.3328C0.15762 23.1548 -0.0190379 22.8324 0.00161045 22.3525C0.028568 21.7385 0.0130817 21.1222 0.00619897 20.5076C0.00218401 20.1321 0.161635 19.8702 0.500612 19.7081C0.761584 19.5831 1.01453 19.4411 1.28009 19.3269C1.43954 19.2584 1.47797 19.1637 1.47797 18.9982C1.47223 15.9225 1.47395 12.8467 1.47395 9.77153C1.47395 7.53119 1.47338 5.29085 1.47395 3.05051C1.47453 1.27924 2.75071 0.00385183 4.52933 0.00213991C7.40003 -0.000713302 10.2701 -0.000713302 13.1408 0.00213991C14.877 0.00385183 16.128 1.24842 16.132 2.97633C16.1354 4.36584 16.1354 5.75592 16.1291 7.14543C16.1285 7.29837 16.1652 7.36741 16.3224 7.41306C17.7322 7.82279 19.1042 9.27393 19.0721 11.0954C19.0394 12.9551 19.064 14.8166 19.0652 16.6769C19.0652 17.0552 19.2332 17.3228 19.5344 17.4381C19.9852 17.6104 20.4767 17.3074 20.5261 16.8258C20.5329 16.7579 20.5307 16.6894 20.5307 16.6209C20.5307 13.7809 20.5295 10.9402 20.5347 8.10012C20.5352 7.93235 20.4796 7.85474 20.3339 7.77143C19.625 7.36741 19.1702 6.78251 19.0967 5.94709C19.0916 5.88717 19.0904 5.82611 19.0962 5.76676C19.1025 5.70685 19.1197 5.64864 19.1375 5.56704C18.7836 5.38957 18.4239 5.21039 18.0655 5.02835C17.7902 4.88912 17.6359 4.67113 17.637 4.35728C17.6387 3.86196 18.1194 3.51729 18.5909 3.68221C18.7555 3.73984 18.9098 3.82544 19.0663 3.90362C19.8711 4.30364 20.6717 4.71108 21.4805 5.10254C21.8378 5.27544 21.9995 5.53736 21.999 5.93168C21.995 9.50846 21.9984 13.0852 21.9955 16.662C21.995 17.7691 21.3738 18.58 20.315 18.8773C19.1323 19.2094 17.7821 18.3197 17.6393 17.11C17.6146 16.8994 17.6009 16.6866 17.6003 16.4743C17.5974 14.6591 17.6026 12.8444 17.5969 11.0292C17.594 10.0665 17.0984 9.40232 16.2794 8.94581C16.2415 8.9247 16.1985 8.91214 16.1326 8.88532C16.1326 8.98233 16.1326 9.05594 16.1326 9.12898C16.1326 12.417 16.1343 15.7056 16.128 18.9937C16.1274 19.1729 16.1784 19.2647 16.3436 19.3343C16.596 19.4399 16.834 19.5791 17.0824 19.6944C17.4391 19.8605 17.6072 20.1298 17.6009 20.5253C17.5911 21.1707 17.5888 21.8166 17.6015 22.4615C17.6101 22.8826 17.45 23.1782 17.0485 23.3311C11.5675 23.3328 6.08541 23.3328 0.603854 23.3328ZM16.1326 21.8703C16.1326 21.5479 16.1394 21.2454 16.1262 20.9441C16.124 20.8899 16.0511 20.8214 15.9938 20.7906C15.7592 20.6645 15.5246 20.535 15.2785 20.4345C14.8317 20.2525 14.6608 19.9375 14.6614 19.457C14.6705 13.9891 14.6677 8.52125 14.6671 3.05393C14.6671 2.03305 14.0889 1.45956 13.0628 1.45956C10.2461 1.45899 7.4287 1.45899 4.61193 1.45956C3.53707 1.45956 2.93998 2.05417 2.93998 3.12355C2.93998 8.59144 2.93826 14.0593 2.94343 19.5266C2.944 19.9392 2.78856 20.2223 2.40886 20.3929C2.13814 20.5144 1.87487 20.6525 1.61161 20.79C1.55769 20.818 1.48313 20.8756 1.48141 20.9224C1.46994 21.2374 1.47567 21.5524 1.47567 21.8703C6.37277 21.8703 11.2355 21.8703 16.1326 21.8703Z" fill="#00669E"/>
<path d="M8.80994 10.938C7.62667 10.938 6.44398 10.9386 5.26072 10.9374C4.68601 10.9369 4.40668 10.6572 4.40668 10.0826C4.40611 8.22232 4.40611 6.36203 4.40668 4.50173C4.40668 3.92653 4.68601 3.64691 5.26014 3.64691C7.6261 3.64634 9.99263 3.64634 12.3586 3.64691C12.9178 3.64691 13.2012 3.93052 13.2012 4.49032C13.2023 6.35803 13.2023 8.22574 13.2012 10.094C13.2012 10.6538 12.9178 10.9369 12.3592 10.9374C11.1765 10.9386 9.9932 10.938 8.80994 10.938ZM5.88877 5.11517C5.88877 6.57887 5.88877 8.02373 5.88877 9.46175C7.84635 9.46175 9.78729 9.46175 11.7236 9.46175C11.7236 8.00376 11.7236 6.5646 11.7236 5.11517C9.77582 5.11517 7.84004 5.11517 5.88877 5.11517Z" fill="#00669E"/>
</svg>
