<svg width="22" height="23" viewBox="0 0 22 23" fill="none" xmlns="http://www.w3.org/2000/svg">
<path d="M0 16.9802C0.0338714 16.8355 0.0637241 16.6897 0.102188 16.5461C0.246285 16.0025 0.509793 15.5243 0.904194 15.1224C1.13498 14.8876 1.37725 14.6648 1.63903 14.4128C1.38299 14.1562 1.1499 13.9185 0.911657 13.6866C0.741726 13.5207 0.633797 13.3209 0.695225 13.0907C0.737133 12.9345 0.83071 12.7732 0.944954 12.6572C2.05238 11.5366 3.16841 10.4246 4.28387 9.31259C4.33898 9.25747 4.41132 9.21901 4.48078 9.16906C4.26435 8.80854 4.07318 8.49049 3.88258 8.17244C3.62941 7.74991 3.65811 7.50305 4.00142 7.15974C4.85165 6.30894 5.70245 5.45814 6.55325 4.60791C6.92412 4.23762 7.26283 4.23647 7.6314 4.60619C7.85299 4.82836 8.07115 5.05455 8.30251 5.2905C8.61941 4.9736 8.91736 4.67623 9.21531 4.37827C9.67746 3.91555 9.93121 3.90809 10.4393 4.35933C10.4927 4.30938 10.5489 4.25829 10.6029 4.20547C11.425 3.39715 12.2138 2.55209 13.0761 1.78969C14.3643 0.648975 15.9081 0.0869397 17.624 0.013456C18.1815 -0.0100818 18.7412 0.00369642 19.2992 0.00714096C19.7034 0.00943733 19.9767 0.276964 19.979 0.678828C19.9841 1.51643 19.9835 2.3546 19.9795 3.1922C19.9772 3.60497 19.704 3.86618 19.286 3.87365C18.6706 3.88455 18.0529 3.86503 17.4415 3.91555C16.6762 3.9787 16.0045 4.30594 15.4528 4.8364C14.6996 5.5609 13.9694 6.30951 13.2294 7.04837C13.215 7.06272 13.2064 7.08282 13.184 7.11841C13.5514 7.37905 13.5308 7.79584 13.5962 8.17703C13.7684 9.18514 13.9315 10.195 14.1026 11.2031C14.1473 11.4666 14.0704 11.6778 13.8838 11.8638C12.1759 13.5689 10.4772 15.2831 8.76121 16.9796C7.47237 18.2535 5.50381 18.2432 4.20522 16.975C3.70289 16.4847 3.21204 15.9835 2.71545 15.4875C2.66091 15.433 2.6035 15.3813 2.52084 15.3032C2.21197 15.6379 1.89163 15.9462 1.61894 16.2912C1.36863 16.6081 1.28826 16.9979 1.28884 17.4033C1.29113 18.649 1.27908 19.8954 1.29572 21.1412C1.30089 21.5407 1.18779 21.8347 0.816932 22.0069C0.702114 22.0069 0.58787 22.0069 0.473051 22.0069C0.260637 21.9041 0.103336 21.7468 0.000574091 21.5344C0 20.0171 0 18.4986 0 16.9802ZM3.78154 14.6981C3.83321 14.6384 3.88143 14.5753 3.93654 14.5202C5.00435 13.4512 6.07274 12.3828 7.14112 11.3144C7.48902 10.9665 7.69053 10.9367 8.1366 11.16C9.10853 11.6463 10.0828 12.1279 11.0518 12.6205C11.1862 12.6888 11.2597 12.6727 11.3613 12.5683C11.7804 12.1365 12.2035 11.7094 12.6375 11.2932C12.7586 11.1767 12.7781 11.0653 12.7523 10.9137C12.5967 10.0118 12.4503 9.10764 12.2901 8.20631C12.2706 8.09609 12.2103 7.97553 12.1323 7.8963C11.4193 7.1718 10.6982 6.45476 9.97886 5.736C9.93063 5.68777 9.87782 5.643 9.81868 5.58903C9.48858 5.922 9.17168 6.24349 8.85306 6.56212C8.47818 6.937 8.13947 6.93527 7.76171 6.55465C7.54586 6.33707 7.33517 6.11432 7.12562 5.89674C7.08084 5.92258 7.05903 5.93004 7.04525 5.94439C6.45164 6.53571 5.85745 7.12587 5.27073 7.72408C5.23112 7.76484 5.22308 7.8831 5.25236 7.93649C5.41081 8.22468 5.58648 8.50312 5.75527 8.78557C6.00098 9.19834 5.97227 9.44348 5.63528 9.7799C4.55714 10.8586 3.47842 11.9368 2.40028 13.0155C2.34689 13.0689 2.29694 13.1257 2.25503 13.1705C2.76138 13.678 3.25682 14.1734 3.78154 14.6981ZM18.6809 1.29598C18.3933 1.29598 18.1229 1.29196 17.8519 1.29655C16.3197 1.32411 14.9551 1.81725 13.8178 2.8466C13.0703 3.52288 12.378 4.26001 11.6598 4.96901C11.5593 5.06833 11.4514 5.15961 11.3567 5.24572C11.6816 5.57009 11.9784 5.86747 12.2861 6.1746C12.9733 5.48512 13.6714 4.78703 14.3672 4.08721C15.3719 3.07738 16.5861 2.5762 18.011 2.58366C18.2308 2.58481 18.4507 2.58366 18.6809 2.58366C18.6809 2.1508 18.6809 1.7386 18.6809 1.29598ZM8.34327 12.7049C8.34327 12.814 8.34327 12.8834 8.34327 12.9523C8.34327 13.3318 8.34557 13.7113 8.34155 14.0902C8.33868 14.3778 8.1986 14.5833 7.93566 14.6907C7.51371 14.8635 7.07223 14.5552 7.05616 14.077C7.04755 13.8106 7.05443 13.5436 7.05443 13.2698C6.25587 14.0689 5.47913 14.8463 4.68459 15.6414C4.80342 15.7573 4.93546 15.8859 5.06693 16.0151C5.91257 16.847 7.07166 16.8458 7.91385 16.0076C8.64467 15.2808 9.37204 14.5506 10.1006 13.8215C10.1488 13.7733 10.1924 13.721 10.2504 13.6567C9.60914 13.337 8.99199 13.0293 8.34327 12.7049Z" fill="#00669E"/>
<path d="M19.6461 12.9401C17.9932 12.9366 16.8583 11.2838 17.4283 9.80497C17.7969 8.84968 18.3256 7.9851 18.8716 7.12798C18.956 6.99537 19.0398 6.86046 19.138 6.73818C19.3963 6.41668 19.8918 6.39372 20.126 6.73014C20.8172 7.72332 21.4585 8.74692 21.8764 9.89396C22.3707 11.25 21.3373 12.9217 19.6461 12.9401ZM19.6403 8.32037C19.2379 8.98804 18.8544 9.62126 18.6144 10.3285C18.4921 10.6891 18.6001 11.0071 18.8349 11.285C19.1443 11.6507 19.6765 11.7534 20.1059 11.5439C20.5175 11.343 20.8023 10.8464 20.6932 10.4514C20.4825 9.68671 20.0554 9.0265 19.6403 8.32037Z" fill="#00669E"/>
</svg>
