<svg width="22" height="16" viewBox="0 0 22 16" fill="none" xmlns="http://www.w3.org/2000/svg">
<path d="M22 15.3334C21.5793 15.3334 21.158 15.3334 20.7206 15.3334C20.7206 14.9091 20.7206 14.503 20.7206 14.0793C18.5682 14.0793 16.4324 14.0793 14.2708 14.0793C14.2708 14.4821 14.2708 14.8939 14.2708 15.3323C14.1692 15.3323 14.0934 15.3323 14.0171 15.3323C10.7529 15.3323 7.48863 15.334 4.2244 15.3317C2.14774 15.33 0.465977 13.9628 0.0728002 11.9523C0.0245859 11.7045 0.00621852 11.4483 0.00507056 11.1954C-0.00124322 9.81969 -0.00124322 8.44395 0.00277464 7.06821C0.0119583 3.83194 2.14717 1.09064 5.31726 0.238724C9.28404 -0.827022 13.4448 1.79152 14.1457 5.78524C14.2932 6.62698 14.2518 7.47211 14.2622 8.31724C14.2645 8.52767 14.2627 8.73867 14.2627 8.98135C16.852 8.98135 19.4257 8.98135 22 8.98135C22 11.0993 22 13.2166 22 15.3334ZM12.9736 14.0618C12.9736 13.9486 12.9736 13.8717 12.9736 13.7947C12.9736 11.5931 12.977 9.39204 12.9701 7.1904C12.969 6.82497 12.942 6.45671 12.8881 6.09467C12.4386 3.06827 9.37874 0.855884 6.31426 1.33332C3.35597 1.79379 1.29423 4.16456 1.29136 7.11234C1.28964 8.453 1.29021 9.79367 1.29136 11.1343C1.29251 12.8269 2.54149 14.0606 4.25654 14.0618C7.07708 14.0629 9.8982 14.0623 12.7187 14.0623C12.7951 14.0617 12.872 14.0618 12.9736 14.0618ZM20.6988 12.7816C20.6988 11.9269 20.6988 11.097 20.6988 10.2638C20.2689 10.2638 19.8516 10.2638 19.4165 10.2638C19.4165 10.6846 19.4165 11.0908 19.4165 11.5049C18.9809 11.5049 18.5636 11.5049 18.1291 11.5049C18.1291 11.084 18.1291 10.6773 18.1291 10.2621C17.6934 10.2621 17.2761 10.2621 16.833 10.2621C16.833 10.6863 16.833 11.0981 16.833 11.5054C16.3945 11.5054 15.9824 11.5054 15.545 11.5054C15.545 11.0806 15.545 10.6688 15.545 10.2609C15.1065 10.2609 14.6938 10.2609 14.2794 10.2609C14.2794 11.1083 14.2794 11.9427 14.2794 12.781C16.4249 12.7816 18.5561 12.7816 20.6988 12.7816Z" fill="#00669E"/>
<path d="M2.58008 7.02369C2.5841 4.55675 4.63149 2.54461 7.13462 2.54688C9.64636 2.54914 11.6943 4.57711 11.684 7.05254C11.6737 9.51779 9.61823 11.5277 7.11625 11.5197C4.61312 11.5118 2.57607 9.49233 2.58008 7.02369ZM3.86924 7.03557C3.86982 8.80785 5.34036 10.2526 7.13921 10.2498C8.92601 10.2464 10.3914 8.80276 10.3954 7.04123C10.3994 5.27064 8.93118 3.8191 7.13404 3.8174C5.33519 3.8157 3.8681 5.26159 3.86924 7.03557Z" fill="#00669E"/>
</svg>
