<svg width="18" height="18" viewBox="0 0 18 18" fill="none" xmlns="http://www.w3.org/2000/svg">
<path d="M8.90744 0.222656C9.24798 0.222656 9.58897 0.222656 9.92951 0.222656C9.9718 0.231908 10.0141 0.246886 10.0568 0.24997C11.471 0.356583 12.7763 0.793606 13.9482 1.58924C15.9368 2.93995 17.2126 4.77572 17.651 7.16084C17.7065 7.46174 17.736 7.76748 17.7779 8.07101C17.7779 8.41156 17.7779 8.75254 17.7779 9.09309C17.7686 9.13538 17.7536 9.17723 17.7506 9.21996C17.6691 10.3284 17.3805 11.3813 16.8906 12.3774C14.9689 16.2868 10.8692 17.7644 7.23248 16.8494C3.56448 15.9269 0.17138 12.0928 1.01767 7.18816C1.64193 3.5739 4.51826 0.961895 7.93075 0.356583C8.25411 0.299312 8.58144 0.266711 8.90744 0.222656ZM15.7822 8.65738C15.6703 4.79554 12.8715 2.19543 9.24314 2.24962C5.47734 2.30645 2.96798 5.10348 2.89485 8.65562C3.21689 8.65562 3.53849 8.65562 3.86934 8.65562C3.88828 8.07982 3.95304 7.51813 4.15305 6.96304C4.47641 7.17802 4.77995 7.37979 5.08921 7.58553C5.27865 7.30138 5.45663 7.03441 5.63858 6.76083C5.26896 6.51324 4.91476 6.27578 4.55307 6.03348C4.95793 5.30658 5.48791 4.7114 6.16635 4.22107C6.32847 4.61271 6.48487 4.9907 6.64435 5.37618C6.9567 5.24798 7.25451 5.12551 7.55981 4.99996C7.38271 4.56558 7.21177 4.14573 7.03643 3.71488C7.61311 3.4413 8.20477 3.28623 8.8396 3.22719C8.8396 3.71884 8.8396 4.19552 8.8396 4.68232C9.17353 4.68232 9.49513 4.68232 9.83523 4.68232C9.83523 4.19419 9.83523 3.71356 9.83523 3.23292C10.4582 3.26111 11.4238 3.55099 11.8825 3.84704C11.7133 4.22151 11.5432 4.59818 11.3697 4.98233C11.6794 5.12287 11.9715 5.25547 12.2706 5.39116C12.427 5.05062 12.575 4.72858 12.7239 4.40522C13.1495 4.66162 13.894 5.54227 14.109 6.04009C13.7535 6.27887 13.3962 6.51896 13.0341 6.76259C13.2239 7.04586 13.4032 7.31327 13.5856 7.58553C13.9063 7.37187 14.2094 7.16965 14.5222 6.96127C14.7178 7.52606 14.7857 8.08467 14.8029 8.6565C15.1346 8.65738 15.4518 8.65738 15.7822 8.65738ZM10.3745 5.98678C10.3436 6.05463 10.3172 6.10837 10.2938 6.16344C10.026 6.78858 9.75726 7.41328 9.49249 8.03974C9.45416 8.13049 9.41099 8.17146 9.30261 8.17322C8.60567 8.18291 8.01533 8.68161 7.8792 9.3649C7.74484 10.0385 8.09507 10.7372 8.69994 11.0033C9.36165 11.2941 10.1317 11.1037 10.5348 10.5491C10.9476 9.98167 10.9168 9.19353 10.4507 8.67765C10.3657 8.58381 10.3621 8.51773 10.4106 8.40715C10.667 7.82475 10.9137 7.23838 11.1639 6.65333C11.2023 6.5639 11.2397 6.47447 11.2811 6.37711C10.9749 6.24494 10.6833 6.11939 10.3745 5.98678ZM10.7939 12.6483C9.81982 12.6483 8.84004 12.6483 7.85013 12.6483C7.85013 12.995 7.84484 13.3294 7.85101 13.6638C7.86555 14.436 8.44619 15.0409 9.23785 15.1154C9.95594 15.1828 10.6727 14.6598 10.7824 13.9228C10.8441 13.5105 10.7939 13.0818 10.7939 12.6483ZM3.38474 10.1588C3.38474 10.4936 3.38474 10.809 3.38474 11.1341C3.71338 11.1341 4.03322 11.1341 4.35746 11.1341C4.35746 10.8046 4.35746 10.4852 4.35746 10.1588C4.0297 10.1588 3.71426 10.1588 3.38474 10.1588ZM14.313 11.1337C14.6416 11.1337 14.961 11.1337 15.2861 11.1337C15.2861 10.8037 15.2861 10.4839 15.2861 10.1645C14.9544 10.1645 14.635 10.1645 14.313 10.1645C14.313 10.4931 14.313 10.809 14.313 11.1337ZM6.34742 12.6263C6.34742 12.2963 6.34742 11.976 6.34742 11.6505C6.01877 11.6505 5.70246 11.6505 5.37821 11.6505C5.37821 11.9804 5.37821 12.3007 5.37821 12.6263C5.70686 12.6263 6.02318 12.6263 6.34742 12.6263ZM13.3081 12.6263C13.3081 12.3197 13.3112 12.0342 13.3041 11.7491C13.3032 11.7126 13.2504 11.6469 13.22 11.6461C12.9252 11.6381 12.6301 11.6412 12.3257 11.6412C12.3257 11.98 12.3257 12.2998 12.3257 12.6263C12.6547 12.6263 12.9706 12.6263 13.3081 12.6263Z" fill="#00669E"/>
<path d="M9.3291 10.1475C9.0531 10.144 8.84224 9.93007 8.8418 9.6523C8.84136 9.38642 9.06806 9.1606 9.33571 9.16016C9.60423 9.15972 9.83049 9.38422 9.83049 9.65098C9.83094 9.93624 9.61347 10.1511 9.3291 10.1475Z" fill="#00669E"/>
</svg>
