<svg width="26" height="24" viewBox="0 0 26 24" fill="currentColor" xmlns="http://www.w3.org/2000/svg">
<path d="M15.6296 23.666C13.6907 23.666 11.8146 23.666 9.88672 23.666C9.88672 18.3576 9.88672 13.0586 9.88672 7.72043C11.7769 7.72043 13.6687 7.72043 15.6202 7.72043C15.6202 8.43783 15.6202 9.15524 15.6202 9.77238C16.3068 9.25548 16.9306 8.56942 17.7052 8.24518C19.85 7.34609 22.5352 7.36801 24.1395 9.21475C25.1781 10.4099 25.7123 11.8603 25.7657 13.3922C25.8836 16.7427 25.8569 20.0994 25.8867 23.453C25.8867 23.5109 25.8537 23.5673 25.827 23.6551C23.9305 23.6551 22.034 23.6551 20.037 23.6551C20.037 23.4405 20.037 23.2227 20.037 23.005C20.037 20.4424 20.0433 17.8783 20.0323 15.3157C20.0307 14.7973 20.0055 14.271 19.9207 13.7603C19.7573 12.7735 19.2561 12.2222 18.4799 12.0828C17.5984 11.9246 16.6227 12.2801 16.2408 13.0993C15.925 13.776 15.7019 14.5576 15.6846 15.2985C15.6186 17.9222 15.6595 20.549 15.6579 23.1742C15.6548 23.3183 15.6406 23.4608 15.6296 23.666Z" fill="currentColor"/>
<path d="M0.998047 23.666C0.998047 18.3327 0.998047 13.023 0.998047 7.66602C2.76856 7.66602 4.53325 7.66602 6.33138 7.66602C6.33138 13.0009 6.33138 18.3122 6.33138 23.666C4.55942 23.666 2.79327 23.666 0.998047 23.666Z" fill="currentColor"/>
<path d="M3.6971 0.554793C5.16401 0.567766 6.34849 1.77995 6.33119 3.25446C6.3139 4.73329 5.11358 5.90654 3.63659 5.8878C2.15671 5.86906 0.983769 4.6713 0.998178 3.19391C1.01403 1.72229 2.22156 0.541821 3.6971 0.554793Z" fill="currentColor"/>
</svg>
