<svg width="22" height="24" viewBox="0 0 22 24" fill="none" xmlns="http://www.w3.org/2000/svg">
<path d="M19.8086 0.000456605C19.9551 0.0397246 20.1029 0.0744266 20.2476 0.11963C21.3297 0.457518 21.9972 1.40954 21.9981 2.62959C22.0004 5.42446 21.999 8.2198 21.999 11.0147C21.999 11.1896 22.0018 11.364 21.9981 11.5389C21.9889 11.9854 21.706 12.2941 21.308 12.295C20.9096 12.2959 20.6198 11.9868 20.6184 11.5407C20.6147 10.348 20.617 9.15584 20.617 7.96319C20.617 6.17056 20.6189 4.37838 20.6157 2.58575C20.6147 1.95518 20.2849 1.52232 19.7238 1.39401C19.0835 1.2479 18.4294 1.72003 18.3764 2.36932C18.3667 2.49032 18.3686 2.61224 18.3686 2.73369C18.3681 8.40746 18.3723 14.0808 18.3653 19.7545C18.3635 21.2522 17.6813 22.3545 16.3154 23.0206C15.84 23.2526 15.3273 23.3343 14.7976 23.3339C12.31 23.3311 9.82246 23.3339 7.33492 23.3325C5.26933 23.3316 3.74686 21.8252 3.7441 19.7751C3.74087 17.0259 3.74318 14.2762 3.74318 11.527C3.74318 9.97773 3.74686 8.42801 3.73673 6.87875C3.73581 6.75181 3.67316 6.59657 3.58563 6.50388C2.48282 5.33132 1.37033 4.16652 0.256466 3.00309C0.0307446 2.76702 -0.0742852 2.50767 0.058384 2.19581C0.165256 1.94422 0.369327 1.80678 0.6448 1.78076C0.72864 1.773 0.8134 1.77756 0.898161 1.77756C6.20308 1.77756 11.5085 1.77619 16.8134 1.78213C17.0078 1.78213 17.1004 1.73875 17.1796 1.54926C17.5246 0.725545 18.153 0.226476 19.0361 0.0429208C19.0798 0.0337887 19.1213 0.0146114 19.1637 0C19.3788 0.000456605 19.5939 0.000456605 19.8086 0.000456605ZM16.9871 3.16199C12.0806 3.16199 7.21377 3.16199 2.31837 3.16199C2.36812 3.21861 2.39668 3.25331 2.42708 3.28527C3.21158 4.10853 3.98963 4.93727 4.78426 5.75094C5.02472 5.99705 5.1316 6.25868 5.13068 6.60296C5.12284 10.8019 5.12561 15.0004 5.12561 19.1993C5.12561 19.4121 5.12192 19.6244 5.12653 19.8372C5.15279 21.0819 6.05706 21.9645 7.31281 21.9654C9.80726 21.9677 12.3017 21.9677 14.7957 21.9631C15.0007 21.9627 15.2117 21.9417 15.4093 21.8915C16.3804 21.6435 16.9852 20.818 16.9852 19.7491C16.9866 14.2977 16.9857 8.8458 16.9857 3.3944C16.9871 3.31952 16.9871 3.24555 16.9871 3.16199Z" fill="#00669E"/>
<path d="M14.1656 16.916C14.1656 16.4338 14.1656 15.9886 14.1656 15.5188C14.0758 15.5142 13.9947 15.5069 13.9132 15.5069C13.3222 15.506 12.7312 15.5087 12.1401 15.5055C11.6864 15.5032 11.3796 15.227 11.3782 14.8288C11.3768 14.4334 11.6896 14.1435 12.1346 14.1407C12.8016 14.1366 13.4687 14.1398 14.1555 14.1398C14.1555 13.6732 14.1555 13.223 14.1555 12.744C14.0809 12.7399 13.9998 12.7312 13.9192 12.7312C13.336 12.7298 12.7528 12.7316 12.1692 12.7303C11.6933 12.7289 11.3833 12.4645 11.3787 12.0595C11.3736 11.6495 11.6928 11.3673 12.1756 11.3646C12.751 11.3609 13.3268 11.3637 13.9026 11.3637C13.9851 11.3637 14.0675 11.3637 14.1624 11.3637C14.1624 10.8915 14.1624 10.4468 14.1624 9.97695C14.0698 9.97147 13.9814 9.96234 13.8929 9.96234C12.4502 9.96143 11.0074 9.96188 9.56461 9.96188C9.50334 9.96188 9.44161 9.96234 9.38035 9.96188C8.89758 9.95549 8.5742 9.67377 8.58249 9.26648C8.59032 8.86238 8.90219 8.59572 9.37758 8.59527C10.8743 8.5939 12.3709 8.59481 13.8671 8.59481C13.9579 8.59481 14.0486 8.59481 14.1762 8.59481C14.1762 8.41856 14.1762 8.26286 14.1762 8.1067C14.1767 7.5396 14.4268 7.22408 14.8723 7.22956C15.309 7.23459 15.5582 7.55056 15.5582 8.10031C15.5582 11.107 15.5582 14.1133 15.5582 17.1201C15.5582 17.6895 15.5596 18.2588 15.5568 18.8282C15.5564 18.9264 15.5513 19.0264 15.5297 19.1214C15.4518 19.462 15.1524 19.6734 14.7991 19.646C14.4688 19.6204 14.2002 19.3561 14.1818 19.0191C14.1693 18.7858 14.1795 18.5515 14.1795 18.284C14.0657 18.284 13.9768 18.284 13.8883 18.284C12.3995 18.284 10.9106 18.2844 9.42181 18.2826C9.30756 18.2826 9.18871 18.2817 9.08046 18.252C8.76307 18.1639 8.55116 17.8502 8.58571 17.5429C8.62533 17.1927 8.89942 16.9361 9.26564 16.9192C9.46465 16.91 9.66457 16.9169 9.86404 16.9169C11.1995 16.9169 12.5349 16.9169 13.8704 16.9169C13.9616 16.916 14.0528 16.916 14.1656 16.916Z" fill="#00669E"/>
</svg>
