<svg width="22" height="23" viewBox="0 0 22 23" fill="none" xmlns="http://www.w3.org/2000/svg">
<path d="M0.000573709 0.979016C0.168097 0.618623 0.450362 0.500405 0.8445 0.500979C7.62345 0.509013 14.4024 0.506717 21.1813 0.506717C21.6948 0.506717 21.9949 0.746023 21.9926 1.15405C21.9903 1.5615 21.6925 1.79506 21.1745 1.79564C20.7734 1.79564 20.3724 1.79277 19.972 1.79851C19.8997 1.79966 19.8056 1.81285 19.7585 1.85876C19.2525 2.35402 18.7546 2.85673 18.225 3.38642C18.7649 3.91553 19.299 4.43316 19.8268 4.95768C20.4613 5.58837 21.0907 6.2248 21.7212 6.8595C22.0872 7.22793 22.0867 7.56996 21.7206 7.93666C20.8658 8.79231 20.0104 9.64853 19.1544 10.503C18.7861 10.8709 18.4448 10.8703 18.0782 10.503C17.9617 10.3865 17.8515 10.2649 17.7156 10.1214C17.4809 10.3555 17.2675 10.5834 17.038 10.7923C16.9302 10.8904 16.7999 10.9839 16.664 11.0253C16.388 11.1085 16.1034 10.9753 15.964 10.7354C15.8189 10.4875 15.847 10.1794 16.0558 9.96186C16.2928 9.7151 16.5446 9.4821 16.8114 9.22157C16.6513 9.06662 16.5108 8.93692 16.3771 8.80034C16.0713 8.48816 16.0696 8.12604 16.3771 7.81615C17.0633 7.12578 17.7534 6.43885 18.4413 5.74963C18.4958 5.69511 18.548 5.63772 18.6329 5.5482C18.2468 5.17289 17.8676 4.80561 17.4907 4.43603C17.2916 4.24034 17.0937 4.0435 16.9009 3.8415C16.6192 3.54653 16.6169 3.17695 16.9026 2.88485C17.2474 2.53249 17.6008 2.18874 17.9795 1.81228C16.75 1.81228 15.5613 1.81228 14.3485 1.81228C14.3485 2.2249 14.3485 2.63808 14.3485 3.0507C14.3485 3.25844 14.3502 3.46618 14.3479 3.67335C14.3439 4.10491 14.0817 4.37004 13.652 4.37233C12.9934 4.3752 12.3353 4.37291 11.6595 4.37291C11.6595 5.13386 11.6595 5.88793 11.6595 6.65061C11.7978 6.68791 11.9446 6.71833 12.0852 6.76653C12.9125 7.0506 13.4615 7.78344 13.4954 8.6563C13.508 8.98513 13.5068 9.31511 13.4994 9.64394C13.4908 10.0175 13.2171 10.2913 12.8654 10.2947C12.5281 10.2976 12.2412 10.0342 12.22 9.67435C12.2028 9.38168 12.2171 9.08728 12.2125 8.79403C12.2045 8.26434 11.8786 7.94183 11.3503 7.93838C11.107 7.93666 10.8638 7.93609 10.6199 7.93838C10.1197 7.94412 9.7915 8.27008 9.78232 8.77452C9.77658 9.06777 9.78977 9.36216 9.77658 9.65484C9.76224 9.98252 9.56201 10.2104 9.2545 10.2792C8.99174 10.3383 8.69915 10.2 8.56892 9.95096C8.53966 9.89472 8.50696 9.83045 8.50696 9.77019C8.50926 9.29846 8.46565 8.81871 8.53852 8.35731C8.67563 7.48617 9.33081 6.86639 10.2005 6.68849C10.2487 6.67873 10.2952 6.66266 10.3526 6.64659C10.3526 5.92523 10.3526 5.21019 10.352 4.49457C10.352 4.46013 10.3474 4.42628 10.3434 4.37233C9.80412 4.37233 9.2763 4.37233 8.74849 4.37233C8.60506 4.37233 8.46221 4.37463 8.31878 4.37176C7.91661 4.36372 7.64926 4.09745 7.64697 3.69287C7.64353 3.07079 7.64582 2.44871 7.64582 1.81056C6.44562 1.81056 5.25575 1.81056 4.06588 1.81056C4.05153 1.82491 4.03719 1.83925 4.02342 1.85303C4.25922 2.07511 4.49673 2.29663 4.73081 2.52044C4.84956 2.63407 4.96603 2.75114 5.07962 2.86993C5.37967 3.18269 5.38139 3.54653 5.07561 3.85871C4.55927 4.38496 4.03777 4.90603 3.51741 5.42826C3.47725 5.46843 3.42677 5.49885 3.36251 5.5482C3.43709 5.62682 3.48815 5.68306 3.54151 5.73643C4.22422 6.42049 4.90808 7.1034 5.59022 7.78746C5.92814 8.12662 5.93043 8.48012 5.59883 8.81871C5.47376 8.94611 5.34525 9.07064 5.19666 9.21812C5.43589 9.45571 5.66767 9.68583 5.89945 9.91595C6.10713 10.1225 6.17598 10.367 6.07157 10.6425C5.90978 11.0712 5.37623 11.1825 5.02569 10.8634C4.8989 10.7481 4.77842 10.6247 4.66081 10.4996C4.54378 10.3756 4.43362 10.2448 4.29938 10.0921C4.1244 10.2769 3.99302 10.4273 3.84959 10.5656C3.55814 10.8474 3.18581 10.8451 2.89666 10.557C2.00397 9.66804 1.11242 8.77739 0.225468 7.88272C0.133101 7.78918 0.0740085 7.66235 0 7.55102C0 7.45059 0 7.35074 0 7.25031C0.113021 7.09709 0.209978 6.92837 0.341357 6.79351C0.92023 6.19955 1.50656 5.61305 2.09576 5.02884C2.64824 4.48079 3.20761 3.93848 3.77042 3.38756C3.23859 2.85501 2.74061 2.3523 2.23574 1.85704C2.18927 1.81113 2.09519 1.79793 2.02233 1.79679C1.63622 1.79105 1.24897 1.7767 0.86458 1.79908C0.465278 1.82318 0.172113 1.69349 0.000573709 1.32277C0.000573709 1.20799 0.000573709 1.09379 0.000573709 0.979016ZM13.0467 3.07423C13.0467 2.63694 13.0467 2.2249 13.0467 1.80884C11.6733 1.80884 10.3118 1.80884 8.95101 1.80884C8.95101 2.23982 8.95101 2.65702 8.95101 3.07423C10.3233 3.07423 11.6796 3.07423 13.0467 3.07423ZM1.59835 7.40927C2.18755 7.99922 2.78249 8.59547 3.35161 9.1659C3.64592 8.87093 3.9454 8.57194 4.23455 8.28271C3.65797 7.70597 3.06246 7.11028 2.47957 6.52665C2.19042 6.81646 1.89439 7.11258 1.59835 7.40927ZM19.5371 6.53239C18.9404 7.13037 18.3421 7.73007 17.7661 8.30796C18.0466 8.58916 18.3421 8.88585 18.614 9.15844C19.1998 8.57194 19.7981 7.97224 20.3885 7.38058C20.112 7.10569 19.8194 6.81359 19.5371 6.53239Z" fill="#00669E"/>
<path d="M0.000573709 18.2905C0.0114742 18.2727 0.0281118 18.2561 0.0321277 18.2366C0.2335 17.2633 0.830731 16.6877 1.79342 16.4719C2.32983 16.3514 2.86338 16.2171 3.3998 16.0966C3.53634 16.0656 3.61896 16.0019 3.68092 15.8722C4.05211 15.0917 4.4342 14.3159 4.80998 13.5377C5.23452 12.6574 5.93158 12.2178 6.9109 12.2189C8.84258 12.2218 10.7743 12.2235 12.7059 12.2178C13.539 12.2155 14.1787 12.5546 14.6422 13.2439C15.2171 14.0984 15.8022 14.9454 16.3731 15.8022C16.4729 15.952 16.5859 16.0254 16.7621 16.0518C17.8934 16.2194 19.0231 16.3944 20.1533 16.5706C21.2307 16.7382 21.9828 17.6036 21.9914 18.6957C21.9989 19.6758 21.9805 20.6566 21.9995 21.6362C22.0069 22.0356 21.8916 22.3294 21.521 22.501C20.5474 22.501 19.5738 22.501 18.6002 22.501C18.2698 22.3495 18.1355 22.0987 18.1097 21.7292C18.0564 20.9734 17.4224 20.411 16.68 20.4064C15.9302 20.4018 15.2991 20.9688 15.2406 21.7389C15.2131 22.1056 15.0759 22.3622 14.734 22.501C12.2567 22.501 9.78002 22.501 7.30275 22.501C6.96082 22.361 6.82714 22.1033 6.79731 21.7378C6.7342 20.9625 6.10714 20.4007 5.3573 20.4064C4.61492 20.4121 3.98384 20.9728 3.92819 21.7303C3.90122 22.0993 3.76755 22.3507 3.43652 22.5016C2.44859 22.5016 1.46066 22.5016 0.472736 22.5016C0.260464 22.3989 0.102694 22.2416 0 22.0293C0.000573709 20.7823 0.000573709 19.5364 0.000573709 18.2905ZM20.7046 21.2052C20.7046 21.1168 20.7046 21.0463 20.7046 20.9762C20.7046 20.2606 20.7046 19.545 20.7046 18.8294C20.7046 18.2039 20.435 17.9066 19.809 17.8165C19.1154 17.7166 18.4247 17.6001 17.7316 17.4986C17.131 17.4102 16.5291 17.2633 15.9273 17.2604C12.0485 17.2386 8.17019 17.2489 4.29135 17.2501C4.19209 17.2501 4.0894 17.253 3.99302 17.2753C3.33841 17.4263 2.68496 17.5812 2.03208 17.7367C1.53754 17.8544 1.29142 18.1631 1.29027 18.6704C1.28855 19.4578 1.2897 20.2451 1.29027 21.0319C1.29027 21.087 1.29773 21.1415 1.30175 21.2001C1.77678 21.2001 2.23804 21.2001 2.69873 21.2001C2.71537 21.1564 2.73028 21.1237 2.74118 21.0899C3.11065 19.9043 4.1548 19.1186 5.36246 19.1163C6.55233 19.114 7.60681 19.8853 7.97284 21.0445C8.02332 21.2047 8.10422 21.2127 8.23445 21.2127C10.0881 21.2104 11.9412 21.2087 13.7948 21.215C13.9566 21.2156 14.0249 21.1737 14.0771 21.0135C14.6858 19.1485 16.964 18.5115 18.4574 19.7837C18.9014 20.1619 19.182 20.6434 19.3369 21.2046C19.7872 21.2052 20.2301 21.2052 20.7046 21.2052ZM5.07618 15.9428C8.37443 15.9428 11.6308 15.9428 14.9205 15.9428C14.4208 15.214 13.9469 14.5087 13.4569 13.8149C13.2992 13.5916 13.0519 13.509 12.7788 13.509C10.7972 13.5096 8.81619 13.509 6.8346 13.509C6.44505 13.509 6.1691 13.6886 6.00043 14.0393C5.78643 14.4834 5.57014 14.9259 5.355 15.3695C5.26493 15.5531 5.17543 15.7379 5.07618 15.9428Z" fill="#00669E"/>
</svg>
