<svg width="22" height="22" viewBox="0 0 22 22" fill="none" xmlns="http://www.w3.org/2000/svg">
<path d="M21.9531 8.50953C21.6701 8.26706 21.3796 8.21976 21.0396 8.58985C21.0396 8.38191 21.0396 8.25505 21.0396 8.12818C21.0403 6.04578 21.0411 3.96339 21.0403 1.88099C21.0403 1.11904 20.8797 0.958398 20.1192 0.957647C17.6879 0.956897 15.2565 0.965905 12.8251 0.950891C12.3312 0.947888 11.9633 1.09277 11.606 1.45235C8.15525 4.92952 4.68646 8.38867 1.22292 11.8531C0.78529 12.2915 0.78454 12.3478 1.21842 12.7817C3.88851 15.4526 6.5586 18.1235 9.2302 20.7937C9.64681 21.2096 9.71212 21.2096 10.1325 20.7885C13.6501 17.273 17.1654 13.7553 20.6882 10.2444C20.927 10.0064 21.0501 9.74891 21.0381 9.41635C21.0305 9.21967 21.0366 9.02224 21.0366 8.80004C21.3676 8.80004 21.6588 8.80004 21.9816 8.80004C22.0289 9.58901 21.9899 10.3074 21.3638 10.9282C17.85 14.4137 14.3587 17.9209 10.8591 21.4205C10.0829 22.1967 9.27223 22.1922 8.4878 21.4085C5.85223 18.7736 3.21592 16.138 0.581111 13.5023C-0.196571 12.7246 -0.193568 11.9139 0.589368 11.1309C4.08894 7.63123 7.59151 4.13529 11.0836 0.628097C11.4904 0.219725 11.9536 0.0102841 12.5128 0.00878274C15.1311 0.00202658 17.7494 -0.00548026 20.3685 0.00578C21.1957 0.00953342 21.9831 0.760217 21.9899 1.57546C22.0102 3.85679 21.9966 6.13887 21.9944 8.42095C21.9936 8.44046 21.9756 8.46148 21.9531 8.50953Z" fill="#00669E"/>
<path d="M13.8729 8.11127C14.0095 7.91685 14.1311 7.74269 14.2782 7.5325C14.4779 7.72167 14.6153 7.85004 14.7677 7.99417C14.592 8.18184 14.4411 8.34399 14.2625 8.53466C15.0334 9.54133 14.905 10.5615 14.2482 11.6207C14.0485 11.3813 13.8631 11.1583 13.6387 10.8888C13.9134 10.4091 14.0463 9.82734 13.6072 9.20427C13.5081 9.29285 13.4172 9.36717 13.3339 9.44974C13.0764 9.70347 12.8227 9.96021 12.5667 10.2154C12.2935 10.4887 11.8656 10.7259 11.7921 11.0442C11.7245 11.337 12.0458 11.7153 12.1824 12.0614C12.5149 12.9021 12.4924 13.7009 11.8341 14.387C11.1487 15.1016 10.32 15.3283 9.38019 14.9868C9.03414 14.8607 8.71886 14.6497 8.34203 14.4523C8.16413 14.6212 7.95244 14.8231 7.737 15.0288C7.59738 14.8764 7.47502 14.7413 7.3369 14.5904C7.52457 14.393 7.72049 14.1881 7.91266 13.9861C7.01112 12.3992 7.03514 11.379 8.00048 10.3979C8.19866 10.6088 8.39758 10.8212 8.54096 10.9736C8.4156 11.4105 8.21667 11.8354 8.1934 12.2701C8.17464 12.6154 8.37056 12.972 8.47115 13.324C8.51694 13.333 8.56348 13.3413 8.60927 13.3503C9.25183 12.6927 9.8974 12.0374 10.5302 11.3707C10.5812 11.3174 10.576 11.1666 10.5415 11.0855C10.4446 10.8573 10.308 10.6456 10.2059 10.4189C9.6114 9.09842 10.2825 7.79674 11.7057 7.48746C12.4999 7.31705 13.1748 7.57679 13.8729 8.11127ZM10.9874 11.8992C10.3523 12.5321 9.71274 13.1686 9.07393 13.806C9.62341 14.3615 10.3298 14.4005 10.9138 13.89C11.5128 13.3668 11.5301 12.6199 10.9874 11.8992ZM11.3229 10.4542C11.9264 9.85511 12.5194 9.26733 13.1095 8.68179C12.5337 8.22463 11.9107 8.22988 11.389 8.71633C10.874 9.19751 10.859 9.77029 11.3229 10.4542Z" fill="#00669E"/>
<path d="M19.6025 4.30751C19.601 5.30967 18.6806 6.22551 17.6808 6.21875C16.7004 6.21274 15.7869 5.30066 15.7794 4.32027C15.7711 3.31961 16.6839 2.39927 17.6868 2.39552C18.6927 2.39251 19.604 3.30159 19.6025 4.30751ZM17.6965 3.35264C17.096 3.35114 16.7432 3.70171 16.7424 4.3C16.7417 4.9013 17.09 5.25337 17.689 5.25487C18.2888 5.25637 18.6416 4.90655 18.6446 4.30751C18.6476 3.71146 18.2933 3.35414 17.6965 3.35264Z" fill="#00669E"/>
</svg>
