<svg width="22" height="22" viewBox="0 0 22 22" fill="none" xmlns="http://www.w3.org/2000/svg">
<path d="M15.4681 0C16.9292 0 18.3902 0 19.8512 0C19.8512 0.425936 19.8512 0.852446 19.8512 1.29905C19.3122 1.29905 18.815 1.29905 18.3161 1.29905C18.3161 1.72613 18.3161 2.1314 18.3161 2.56767C18.6457 2.56767 18.966 2.55734 19.2858 2.56939C20.4988 2.61647 21.5373 3.43275 21.8777 4.59862C21.9231 4.75418 21.9598 4.91262 22 5.0699C22 5.90054 22 6.73117 22 7.56238C21.6315 7.56238 21.2623 7.56238 20.8777 7.56238C20.8777 11.1053 20.8777 14.611 20.8777 18.1413C20.3811 18.1413 19.9006 18.1413 19.3989 18.1413C19.4339 18.2217 19.4545 18.2734 19.4781 18.3244C20.0527 19.5603 19.5946 20.9972 18.412 21.6665C17.2432 22.3278 15.7701 21.9788 15.0192 20.8525C14.9279 20.7159 14.8395 20.6677 14.6776 20.6677C11.2693 20.6728 7.86151 20.6711 4.45318 20.6711C4.37625 20.6711 4.29932 20.6711 4.19312 20.6711C4.19312 21.1246 4.19312 21.5563 4.19312 21.9874C3.75108 21.9874 3.33831 21.9874 2.89684 21.9874C2.89684 20.6992 2.89684 19.4232 2.89684 18.1304C2.29061 18.1304 1.71308 18.1304 1.11087 18.1304C1.11087 14.603 1.11087 11.0927 1.11087 7.56238C0.731973 7.56238 0.37719 7.56238 0.00116515 7.56238C0.00116515 7.48775 0.00116515 7.43207 0.00116515 7.37639C0.00116515 6.7105 -0.00285343 6.04462 0.00403557 5.37874C0.00575781 5.1939 0.0247026 5.00561 0.0631661 4.82536C0.352504 3.46662 1.48861 2.56423 2.90832 2.56365C7.51247 2.56251 12.116 2.56308 16.7202 2.56308C16.8115 2.56308 16.9027 2.56308 17.0055 2.56308C17.0055 2.12853 17.0055 1.7181 17.0055 1.28412C16.4974 1.28412 16.0009 1.28412 15.4681 1.28412C15.4681 0.840966 15.4681 0.420196 15.4681 0ZM2.41805 7.57041C2.41805 10.6708 2.41805 13.7517 2.41805 16.8314C8.14913 16.8314 13.8658 16.8314 19.5762 16.8314C19.5762 13.7356 19.5762 10.6547 19.5762 7.57041C13.8521 7.57041 8.14568 7.57041 2.41805 7.57041ZM20.7026 6.26735C20.7026 5.92063 20.7233 5.59745 20.6986 5.27771C20.6326 4.42756 19.9672 3.85352 19.0642 3.85352C13.6867 3.85237 8.30987 3.85294 2.93243 3.85352C2.86814 3.85352 2.80326 3.85467 2.73897 3.85868C2.07762 3.896 1.47943 4.3581 1.35256 5.00619C1.27276 5.41318 1.29343 5.83969 1.26817 6.26792C7.77195 6.26735 14.2269 6.26735 20.7026 6.26735ZM14.8584 18.1471C11.3295 18.1471 7.77597 18.1471 4.20977 18.1471C4.20977 18.5598 4.20977 18.9622 4.20977 19.3709C7.67034 19.3709 11.1166 19.3709 14.5255 19.3709C14.6391 18.9542 14.7471 18.5575 14.8584 18.1471ZM18.4355 19.4295C18.4378 18.7205 17.8695 18.143 17.164 18.1367C16.455 18.1304 15.8608 18.7211 15.8642 19.4289C15.8677 20.1309 16.4498 20.7096 17.1525 20.7101C17.8586 20.7101 18.4338 20.1367 18.4355 19.4295Z" fill="#00669E"/>
<path d="M16.1983 14.8761C15.782 14.7366 15.3854 14.604 14.9772 14.4674C15.1563 13.9267 15.3291 13.406 15.5105 12.8578C14.9318 12.8578 14.3727 12.8578 13.7871 12.8578C14.1597 11.7396 14.5231 10.6501 14.8928 9.54102C15.3027 9.67706 15.7 9.80909 16.1139 9.94629C15.9359 10.4853 15.7625 11.0111 15.5817 11.5588C16.1581 11.5588 16.7075 11.5588 17.3028 11.5588C16.9296 12.6776 16.5662 13.7694 16.1983 14.8761Z" fill="#00669E"/>
<path d="M5.88063 9.68359C5.88063 11.369 5.88063 13.0411 5.88063 14.73C5.45867 14.73 5.04189 14.73 4.61133 14.73C4.61133 13.0538 4.61133 11.377 4.61133 9.68359C5.02467 9.68359 5.44203 9.68359 5.88063 9.68359Z" fill="#00669E"/>
<path d="M7.10352 9.67676C7.53121 9.67676 7.9434 9.67676 8.36765 9.67676C8.36765 11.3621 8.36765 13.0389 8.36765 14.7317C7.94971 14.7317 7.53293 14.7317 7.10352 14.7317C7.10352 13.0515 7.10352 11.3742 7.10352 9.67676Z" fill="#00669E"/>
<path d="M9.5957 9.67676C10.0228 9.67676 10.4344 9.67676 10.8593 9.67676C10.8593 11.3621 10.8593 13.0383 10.8593 14.7312C10.4425 14.7312 10.0257 14.7312 9.5957 14.7312C9.5957 13.0515 9.5957 11.3753 9.5957 9.67676Z" fill="#00669E"/>
</svg>
