<svg width="19" height="26" viewBox="0 0 19 26" fill="none" xmlns="http://www.w3.org/2000/svg">
<path d="M9.12442 15.2683C10.4676 15.2683 11.8197 15.1683 13.153 15.2893C15.9653 15.5433 18.1739 18.0881 18.1719 20.9389C18.1709 21.7138 17.8904 22.3797 17.2976 22.8787C15.4151 24.4646 13.269 25.4635 10.8284 25.7905C7.55423 26.2284 4.55558 25.4925 1.84342 23.6057C1.34183 23.2567 0.846184 22.8537 0.472469 22.3768C-0.168894 21.5578 -0.0430003 20.5839 0.185987 19.647C0.836272 16.9862 3.08848 15.2343 5.86408 15.2113C6.95053 15.2023 8.03698 15.2103 9.12442 15.2103C9.12343 15.2293 9.12343 15.2493 9.12442 15.2683Z" fill="white"/>
<path d="M3.40626 6.66906C3.41022 3.50631 5.95684 0.941507 9.09724 0.937507C12.2317 0.932508 14.7793 3.48931 14.7981 6.66006C14.818 9.81182 12.2228 12.4286 9.08931 12.4176C5.95981 12.4076 3.4013 9.81982 3.40626 6.66906Z" fill="white"/>
</svg>
