<svg width="22" height="25" viewBox="0 0 22 25" fill="none" xmlns="http://www.w3.org/2000/svg">
<path d="M15.5087 24.2098C15.2227 24.1584 14.9341 24.1175 14.6506 24.0539C14.0145 23.9115 13.4176 23.6707 12.8678 23.3302C12.7523 23.2587 12.668 23.2575 12.5456 23.3131C7.86555 25.4524 2.45045 23.3889 0.576284 18.7356C-0.244416 16.6978 -0.151818 14.6514 0.621314 12.6142C1.1991 11.091 2.04644 9.70843 3.01745 8.39735C4.87893 5.88521 6.76768 3.39203 8.64502 0.891502C8.66785 0.861552 8.69576 0.83527 8.73762 0.790039C8.9615 1.07793 9.18349 1.35237 9.39342 1.63475C11.2669 4.15667 13.1563 6.66881 14.9988 9.2115C15.5252 9.93825 15.9159 10.7561 16.3713 11.5311C16.4207 11.6148 16.4721 11.7114 16.5508 11.7628C17.7577 12.5555 18.6279 13.6276 19.3109 14.8513C19.4162 15.0395 19.5139 15.0719 19.7124 15.0053C20.1297 14.8641 20.5547 14.7449 21.0183 14.6037C21.2473 15.2254 21.5105 15.8292 21.6931 16.4551C22.1308 17.9508 22.1479 19.4459 21.4318 20.8731C20.4767 22.7764 18.8917 23.8791 16.7099 24.17C16.6567 24.1774 16.6053 24.1969 16.5527 24.2104C16.2051 24.2098 15.8569 24.2098 15.5087 24.2098ZM11.0653 14.6129C11.5124 14.7474 11.9526 14.869 12.3845 15.0145C12.5659 15.0756 12.6394 15.0316 12.7276 14.8733C13.2978 13.8513 13.9999 12.9265 14.9347 12.1821C15.0451 12.094 15.0514 12.0244 14.9855 11.9137C14.6062 11.2811 14.2789 10.6137 13.847 10.0171C12.1904 7.7305 10.5002 5.46591 8.82197 3.19399C8.79724 3.16037 8.76362 3.13348 8.7262 3.09497C8.678 3.15365 8.64248 3.19338 8.61077 3.23555C7.1793 5.15358 5.73896 7.06549 4.32081 8.99268C3.45571 10.1681 2.66101 11.3869 2.09972 12.7328C1.53398 14.0879 1.27014 15.4778 1.53652 16.9356C2.32867 21.2618 6.89009 23.8375 11.182 22.3816C11.2968 22.3425 11.409 22.2972 11.5371 22.2489C11.4445 22.1359 11.3754 22.0534 11.3082 21.9684C10.5947 21.0668 10.1856 20.054 10.0879 18.9214C9.95662 17.3976 10.4329 16.0034 11.0653 14.6129ZM11.9012 16.3036C11.5251 17.3121 11.3665 18.3145 11.586 19.342C12.0483 21.5118 14.1565 23.0301 16.3903 22.8247C18.7439 22.609 20.497 20.8162 20.5579 18.5571C20.5788 17.7876 20.4456 17.0425 20.15 16.3072C19.6427 16.4582 19.1486 16.6049 18.6463 16.7546C18.0799 15.317 17.2808 14.0597 16.0269 13.0855C14.7705 14.0665 13.9726 15.3262 13.4081 16.7516C12.9033 16.6018 12.4149 16.4564 11.9012 16.3036Z" fill="#00669E"/>
<path d="M8.71632 19.6497C8.71632 20.1039 8.71632 20.5427 8.71632 21.003C7.98378 21.006 7.295 20.8673 6.63476 20.5959C4.45236 19.6998 3.13885 17.5942 3.35767 15.3173C3.44392 14.4188 3.76548 13.5809 4.18217 12.7802C4.46441 12.2374 4.78343 11.7117 5.09801 11.1592C5.52485 11.4232 5.91427 11.6634 6.3094 11.9079C6.08678 12.2808 5.86606 12.631 5.66501 12.9922C5.27115 13.6994 4.94769 14.4323 4.80436 15.2312C4.43777 17.2739 6.01828 19.3337 8.15565 19.5904C8.33514 19.6124 8.51526 19.6289 8.71632 19.6497Z" fill="#00669E"/>
<path d="M18.3632 19.6498C18.3657 20.8931 17.3205 21.9089 16.0324 21.9132C14.7468 21.9175 13.6939 20.9041 13.6914 19.6602C13.6889 18.4152 14.7328 17.4017 16.0216 17.3975C17.3072 17.3938 18.3606 18.4066 18.3632 19.6498ZM15.1165 19.6474C15.1134 20.1376 15.5212 20.5392 16.0254 20.5404C16.5195 20.5416 16.9311 20.1517 16.9387 19.6743C16.9463 19.1822 16.5474 18.7795 16.0419 18.7703C15.5402 18.7611 15.1197 19.1596 15.1165 19.6474Z" fill="#00669E"/>
</svg>
