<svg width="18" height="18" viewBox="0 0 18 18" fill="none" xmlns="http://www.w3.org/2000/svg">
<path d="M0.666016 6.25485C0.687316 6.20571 0.70906 6.15702 0.729473 6.10744C0.87902 5.74403 1.14572 5.51872 1.53933 5.48906C1.88059 5.46338 2.22539 5.47179 2.56841 5.47622C2.75435 5.47843 2.87727 5.41292 2.93008 5.23011C2.94073 5.19337 2.95582 5.15707 2.97224 5.1221C3.14441 4.75957 3.14353 4.74894 2.8431 4.45502C2.66515 4.28106 2.48854 4.10577 2.31458 3.92782C1.90233 3.50686 1.90233 2.92876 2.31547 2.50824C2.52448 2.29532 2.7366 2.08462 2.9496 1.87569C3.3765 1.45738 3.97291 1.4596 4.40203 1.881C4.60305 2.07842 4.80141 2.27895 5.0011 2.47814C5.1897 2.66627 5.23364 2.67379 5.48303 2.56357C5.49812 2.55693 5.51232 2.54675 5.52829 2.54321C5.86821 2.47194 5.97649 2.25947 5.94232 1.92659C5.91747 1.68623 5.933 1.44101 5.93921 1.19799C5.95297 0.627411 6.36389 0.228139 6.93767 0.224155C7.24209 0.221942 7.54651 0.222384 7.85093 0.224155C8.43847 0.227696 8.85338 0.635379 8.86315 1.22322C8.86847 1.53219 8.86847 1.84161 8.8627 2.15102C8.8596 2.31834 8.93104 2.42281 9.08769 2.47548C9.14538 2.49496 9.20129 2.51886 9.25721 2.54232C9.59313 2.68486 9.59313 2.68486 9.85761 2.42104C10.0418 2.23778 10.2242 2.05231 10.4105 1.87126C10.8281 1.46535 11.4205 1.46535 11.8386 1.87171C12.0564 2.08374 12.2712 2.29931 12.4842 2.51621C12.896 2.93584 12.8934 3.51262 12.4785 3.93446C12.265 4.15136 12.0507 4.36694 11.8319 4.57808C11.7196 4.68653 11.6886 4.79985 11.7431 4.95035C11.8173 5.15441 11.7272 5.34741 11.5452 5.41381C11.358 5.48242 11.1756 5.3961 11.0859 5.19691C10.9222 4.83349 10.9972 4.42182 11.2865 4.12613C11.5071 3.90082 11.7329 3.68127 11.9548 3.45729C12.1234 3.28686 12.1243 3.15761 11.9575 2.98896C11.7551 2.78445 11.5519 2.58128 11.3469 2.37987C11.1911 2.22716 11.0575 2.22671 10.9013 2.37943C10.6839 2.59234 10.4713 2.80969 10.2548 3.0226C9.91708 3.35459 9.53411 3.42541 9.09878 3.23906C9.00249 3.19789 8.90575 3.15717 8.80812 3.11777C8.37457 2.94425 8.15979 2.61979 8.1518 2.15854C8.14647 1.86064 8.15224 1.56229 8.15002 1.26394C8.14825 1.01517 8.05905 0.927971 7.807 0.926644C7.53009 0.924873 7.25319 0.923988 6.97672 0.926644C6.73754 0.928857 6.64612 1.02226 6.64479 1.25996C6.64346 1.56937 6.65056 1.87879 6.64302 2.18776C6.63237 2.62864 6.42069 2.93938 6.01155 3.11246C5.89439 3.16204 5.77724 3.21073 5.6592 3.25721C5.25316 3.41612 4.8875 3.35193 4.57199 3.0496C4.34833 2.83536 4.13355 2.61226 3.91301 2.39492C3.7355 2.22007 3.60992 2.22096 3.43064 2.39758C3.23405 2.5919 3.03791 2.78711 2.84354 2.98365C2.6687 3.16027 2.67003 3.28509 2.84843 3.46437C3.05477 3.67241 3.26423 3.8778 3.47058 4.08541C3.80917 4.42669 3.87884 4.80914 3.68624 5.25268C3.63787 5.36379 3.59749 5.47888 3.54602 5.58865C3.36718 5.96889 3.06587 6.17251 2.64474 6.18314C2.32923 6.1911 2.01371 6.18358 1.6982 6.18535C1.471 6.18668 1.37559 6.27963 1.37292 6.50849C1.36982 6.79001 1.37026 7.07154 1.37248 7.35351C1.37426 7.5952 1.46345 7.6855 1.70264 7.68771C2.00173 7.69037 2.30038 7.68683 2.59948 7.68904C3.06942 7.69258 3.39824 7.917 3.57442 8.34992C3.61391 8.44686 3.65341 8.5438 3.69512 8.6403C3.87706 9.06215 3.80562 9.45035 3.48078 9.78013C3.26734 9.99658 3.04945 10.2091 2.83556 10.4251C2.67403 10.5884 2.67358 10.7194 2.83378 10.8814C3.03569 11.0859 3.23938 11.2891 3.44484 11.4901C3.60548 11.6477 3.74127 11.6472 3.90324 11.4883C4.12424 11.2714 4.34079 11.0501 4.56178 10.8332C4.87375 10.5264 5.25671 10.4538 5.66098 10.6207C5.78345 10.6712 5.90726 10.719 6.02841 10.7726C6.42735 10.9496 6.6337 11.2586 6.64302 11.6924C6.64967 12.0071 6.64302 12.3218 6.64524 12.6366C6.64657 12.8322 6.72378 12.9176 6.91548 12.946C7.14535 12.9801 7.27892 13.1306 7.25807 13.3329C7.23721 13.5374 7.08189 13.6555 6.84626 13.6467C6.38785 13.629 5.9827 13.2656 5.94676 12.8048C5.92013 12.4644 5.93389 12.1209 5.93034 11.7787C5.92768 11.5228 5.8975 11.4804 5.66142 11.3839C5.16485 11.1807 5.2394 11.147 4.8307 11.5583C4.68249 11.7074 4.53516 11.857 4.38428 12.0031C3.96626 12.409 3.37384 12.4108 2.95626 12.0053C2.73438 11.7898 2.51472 11.5711 2.29861 11.3493C1.90011 10.9403 1.90056 10.3649 2.29994 9.95498C2.51206 9.73719 2.72595 9.52073 2.9465 9.31136C3.08051 9.18387 3.10847 9.05728 3.03037 8.88331C2.79739 8.3632 2.9039 8.39861 2.2813 8.39994C2.07096 8.40038 1.86062 8.40481 1.65027 8.39861C1.18433 8.38489 0.843076 8.12461 0.701073 7.6824C0.692641 7.65982 0.677553 7.63681 0.666016 7.61335C0.666016 7.16051 0.666016 6.70768 0.666016 6.25485Z" fill="#00669E"/>
<path d="M16.1885 17.1114C15.9346 16.9209 15.9079 16.8322 16.0066 16.5131C16.2579 15.698 16.5114 14.8833 16.7591 14.0668C17.0348 13.1593 16.5487 12.3482 15.625 12.1752C14.7156 12.005 13.8048 11.8405 12.8945 11.6747C12.6348 11.6272 12.5311 11.5031 12.5311 11.2221C12.5307 9.87502 12.5325 8.5275 12.5298 7.18044C12.5289 6.74217 12.154 6.45582 11.7547 6.5795C11.5114 6.65479 11.3433 6.87571 11.3331 7.14414C11.3273 7.30054 11.3317 7.45693 11.3317 7.61378C11.3317 9.88891 11.3317 12.164 11.3313 14.4392C11.3313 14.73 11.1681 14.9088 10.9275 14.86C10.8328 14.8407 10.7367 14.7717 10.6651 14.7009C10.2368 14.2787 9.81791 13.8472 9.39098 13.4237C9.17752 13.2118 8.8929 13.1719 8.6403 13.3023C8.39659 13.4282 8.24583 13.6913 8.30631 13.9713C8.33833 14.1197 8.42594 14.2752 8.53223 14.3845C9.20287 15.0764 9.88595 15.7558 10.5637 16.4401C10.7425 16.6207 10.7798 16.7865 10.6642 16.9446C10.6144 17.0128 10.5312 17.0567 10.4632 17.1118C10.3965 17.1118 10.3302 17.1118 10.2635 17.1118C10.1643 17.0249 10.0594 16.9433 9.96645 16.8501C9.3136 16.1958 8.65986 15.5425 8.01369 14.8815C7.31415 14.1658 7.52227 13.0262 8.41705 12.6386C8.93159 12.4159 9.49949 12.5279 9.91975 12.9406C10.1457 13.1625 10.3649 13.3919 10.6273 13.6585C10.6273 13.5465 10.6273 13.4842 10.6273 13.4224C10.6273 11.3489 10.6264 9.27543 10.6277 7.2015C10.6282 6.52259 11.0774 5.97364 11.7097 5.87147C12.5494 5.73568 13.2427 6.34513 13.2454 7.23018C13.2494 8.42623 13.2489 9.62228 13.2431 10.8183C13.2422 10.9707 13.2814 11.0245 13.437 11.0513C14.2611 11.1939 15.0865 11.3341 15.9043 11.5098C17.0802 11.7625 17.8037 12.9671 17.4773 14.1367C17.2243 15.0441 16.9321 15.9404 16.6448 16.838C16.6114 16.9424 16.4985 17.0208 16.4224 17.1118C16.3437 17.1114 16.2663 17.1114 16.1885 17.1114Z" fill="#00669E"/>
<path d="M9.3271 6.95178C9.32152 8.01794 8.44209 8.88931 7.37733 8.88374C6.28641 8.87773 5.42456 8.00807 5.42971 6.91831C5.43529 5.84443 6.31343 4.9812 7.39535 4.98635C8.46954 4.99107 9.33267 5.86931 9.3271 6.95178ZM8.64328 6.93333C8.64414 6.23743 8.07401 5.66766 7.37733 5.66724C6.68494 5.66724 6.10966 6.24343 6.11095 6.9359C6.11224 7.63223 6.68365 8.20114 7.37948 8.19942C8.07959 8.1977 8.64286 7.63352 8.64328 6.93333Z" fill="#00669E"/>
</svg>
