<svg width="31" height="24" viewBox="0 0 31 24" fill="currentColor" xmlns="http://www.w3.org/2000/svg">
<path d="M9.68772 18.5508C6.9607 18.2609 5.13212 17.0081 4.09582 14.4869C4.98317 14.4869 5.76436 14.4869 6.54555 14.4869C3.7282 13.4589 2.14523 11.6138 1.97409 8.66781C2.82025 8.89729 3.59985 9.10817 4.37945 9.31904C4.41114 9.27563 4.44125 9.23067 4.47294 9.18725C1.97568 7.06614 1.33552 4.57599 2.81549 1.54938C6.14148 5.27683 10.2391 7.29406 15.1085 7.62432C15.2226 6.61958 15.1814 5.6319 15.4603 4.74035C16.758 0.598912 21.8698 -0.795007 25.2196 2.04555C25.527 2.30603 25.7821 2.41457 26.1671 2.27502C27.2256 1.89049 28.292 1.52457 29.3141 1.1664C29.1271 2.01764 28.8846 2.34169 27.1131 4.19301C28.1098 3.93408 29.1049 3.67514 30.1016 3.4162C30.1412 3.45807 30.1824 3.49994 30.222 3.5418C29.4107 4.33567 28.6153 5.14505 27.7786 5.91255C27.4966 6.16994 27.3476 6.39786 27.3365 6.79324C27.1258 14.0388 23.7332 19.354 16.9149 22.2473C11.5765 24.5126 6.24289 23.9978 1.16914 21.1805C1.11685 21.1511 1.07248 21.1092 0.888672 20.9697C4.19089 21.2379 7.03993 20.4673 9.68772 18.5508Z" fill="currentColor"/>
</svg>
